<svg width="35" height="34" viewBox="0 0 35 34" fill="none" xmlns="http://www.w3.org/2000/svg">
<g filter="url(#filter0_d_676_518)">
<path fill-rule="evenodd" clip-rule="evenodd" d="M13.8107 8.46064L13.831 11.5489H19.7916C20.8502 11.5489 21.7081 10.909 21.7028 10.1221L21.7013 9.88744C21.6962 9.10038 20.8299 8.46064 19.7712 8.46064H14.6267H13.8107ZM22.4593 16.2431L22.4576 15.9952C22.452 15.1174 21.4869 14.4047 20.3062 14.4047H19.8101H13.8497L13.8722 17.8338H20.3286C21.5093 17.8338 22.4651 17.1198 22.4593 16.2431ZM24.3511 12.7376C25.5372 13.55 26.2894 14.708 26.2978 15.9952L26.2995 16.2431C26.3156 18.6938 23.6454 20.6884 20.3473 20.6884H20.2014L20.2098 22H16.3698L16.3611 20.6884H14.7872L14.7959 22H10.9558L10.9472 20.6884H10.0508H8.14631L8.12757 17.8338H10.032L10.0096 14.4047L9.99072 11.5489L9.97049 8.46064H8.06604L8.0473 5.60495H10.8482L10.8377 4H14.6778L14.6882 5.60495H16.2623L16.2517 4H20.0919L20.1024 5.61839C23.1172 5.75437 25.5266 7.61403 25.5416 9.88744L25.543 10.1221C25.5495 11.1072 25.1012 12.0127 24.3511 12.7376Z" fill="white"/>
</g>
<defs>
<filter id="filter0_d_676_518" x="0.0473022" y="0" width="34.2523" height="34" filterUnits="userSpaceOnUse" color-interpolation-filters="sRGB">
<feFlood flood-opacity="0" result="BackgroundImageFix"/>
<feColorMatrix in="SourceAlpha" type="matrix" values="0 0 0 0 0 0 0 0 0 0 0 0 0 0 0 0 0 0 127 0" result="hardAlpha"/>
<feOffset dy="4"/>
<feGaussianBlur stdDeviation="4"/>
<feColorMatrix type="matrix" values="0 0 0 0 0 0 0 0 0 0 0 0 0 0 0 0 0 0 0.0744452 0"/>
<feBlend mode="normal" in2="BackgroundImageFix" result="effect1_dropShadow_676_518"/>
<feBlend mode="normal" in="SourceGraphic" in2="effect1_dropShadow_676_518" result="shape"/>
</filter>
</defs>
</svg>
