<svg width="16" height="14" viewBox="0 0 16 14" fill="none" xmlns="http://www.w3.org/2000/svg">
<path d="M0.161743 4.35698V3.87633C0.161743 3.47814 0.477416 3.15535 0.866828 3.15535H11.4431V1.7134C11.4431 1.07152 12.204 0.750831 12.6468 1.20357L14.9971 3.60683C15.2724 3.8884 15.2724 4.3449 14.9971 4.62644L12.6468 7.0297C12.2057 7.48067 11.4431 7.16447 11.4431 6.51991V5.07796H0.866828C0.477416 5.07796 0.161743 4.75517 0.161743 4.35698ZM14.4985 8.92317H3.9222V7.48122C3.9222 6.84093 3.16241 6.51751 2.71853 6.97139L0.368245 9.37465C0.0929092 9.65622 0.0929092 10.1127 0.368245 10.3943L2.71853 12.7975C3.16003 13.2489 3.9222 12.9317 3.9222 12.2877V10.8458H14.4985C14.8879 10.8458 15.2036 10.523 15.2036 10.1248V9.64415C15.2036 9.24596 14.8879 8.92317 14.4985 8.92317Z" fill="#EEEEEE"/>
</svg>
