<svg width="16" height="14" viewBox="0 0 16 14" fill="none" xmlns="http://www.w3.org/2000/svg">
<path d="M14.7852 5.83191H14.0148C13.785 5.3112 13.4507 4.85038 13.0381 4.46506L13.5317 2.49939H12.696C11.9283 2.49939 11.2493 2.85087 10.7897 3.3924C10.5912 3.36376 10.3953 3.33252 10.189 3.33252H6.84641C4.82517 3.33252 3.14079 4.76446 2.75169 6.66504H1.62355C1.23706 6.66504 0.931526 6.31356 1.00987 5.91522C1.06732 5.61842 1.34674 5.41534 1.64967 5.41534H1.67578C1.76196 5.41534 1.83247 5.34505 1.83247 5.25913V4.73843C1.83247 4.65251 1.76196 4.58221 1.67578 4.58221C0.931526 4.58221 0.268223 5.11333 0.174212 5.84753C0.0593087 6.73794 0.753949 7.49817 1.62355 7.49817H2.66813C2.66813 8.85721 3.33143 10.0522 4.33944 10.8125V12.9135C4.33944 13.1426 4.52746 13.3301 4.75727 13.3301H6.42858C6.65839 13.3301 6.84641 13.1426 6.84641 12.9135V11.6638H10.189V12.9135C10.189 13.1426 10.3771 13.3301 10.6069 13.3301H12.2782C12.508 13.3301 12.696 13.1426 12.696 12.9135V10.8125C13.0042 10.5807 13.2784 10.3074 13.5134 9.99756H14.7852C15.015 9.99756 15.203 9.8101 15.203 9.58099V6.24847C15.203 6.01936 15.015 5.83191 14.7852 5.83191ZM11.4425 7.49817C11.2127 7.49817 11.0247 7.31071 11.0247 7.0816C11.0247 6.85249 11.2127 6.66504 11.4425 6.66504C11.6723 6.66504 11.8604 6.85249 11.8604 7.0816C11.8604 7.31071 11.6723 7.49817 11.4425 7.49817ZM6.84641 2.49939H10.189C10.3301 2.49939 10.4685 2.5098 10.6043 2.52022C10.6043 2.51241 10.6069 2.5072 10.6069 2.49939C10.6069 1.11952 9.48396 0 8.0999 0C6.71584 0 5.59293 1.11952 5.59293 2.49939C5.59293 2.55406 5.60598 2.60613 5.6086 2.66081C6.00553 2.55927 6.41814 2.49939 6.84641 2.49939Z" fill="#EEEEEE"/>
</svg>
