<svg width="16" height="5" viewBox="0 0 16 5" fill="none" xmlns="http://www.w3.org/2000/svg">
<path d="M2.17006 3.08615C2.58543 3.08615 2.92215 2.73878 2.92215 2.31029C2.92215 1.88179 2.58543 1.53442 2.17006 1.53442C1.75469 1.53442 1.41797 1.88179 1.41797 2.31029C1.41797 2.73878 1.75469 3.08615 2.17006 3.08615Z" stroke="#EEEEEE" stroke-width="2"/>
<path d="M8.18678 3.08615C8.60215 3.08615 8.93887 2.73878 8.93887 2.31029C8.93887 1.88179 8.60215 1.53442 8.18678 1.53442C7.77141 1.53442 7.43469 1.88179 7.43469 2.31029C7.43469 2.73878 7.77141 3.08615 8.18678 3.08615Z" stroke="#EEEEEE" stroke-width="2"/>
<path d="M14.2035 3.08615C14.6189 3.08615 14.9556 2.73878 14.9556 2.31029C14.9556 1.88179 14.6189 1.53442 14.2035 1.53442C13.7881 1.53442 13.4514 1.88179 13.4514 2.31029C13.4514 2.73878 13.7881 3.08615 14.2035 3.08615Z" stroke="#EEEEEE" stroke-width="2"/>
</svg>
