<svg width="16" height="16" viewBox="0 0 16 16" fill="none" xmlns="http://www.w3.org/2000/svg">
<path d="M14.8896 8.14332L8.05526 0.993883C8.00605 0.942267 7.9476 0.901317 7.88325 0.873377C7.81891 0.845436 7.74993 0.831055 7.68027 0.831055C7.61061 0.831055 7.54164 0.845436 7.47729 0.873377C7.41295 0.901317 7.3545 0.942267 7.30529 0.993883L0.47099 8.14332C0.271884 8.35176 0.159058 8.63489 0.159058 8.93018C0.159058 9.54333 0.635252 10.0419 1.22095 10.0419H1.94105V15.1434C1.94105 15.4508 2.17832 15.6992 2.472 15.6992H6.61838V11.8084H8.4767V15.6992H12.8885C13.1822 15.6992 13.4195 15.4508 13.4195 15.1434V10.0419H14.1396C14.4217 10.0419 14.6921 9.92547 14.8912 9.7153C15.3044 9.28105 15.3044 8.57757 14.8896 8.14332Z" fill="#EEEEEE"/>
</svg>
