<svg width="16" height="5" viewBox="0 0 16 5" fill="none" xmlns="http://www.w3.org/2000/svg">
<path d="M2.1703 3.08621C2.58567 3.08621 2.92239 2.73884 2.92239 2.31035C2.92239 1.88185 2.58567 1.53448 2.1703 1.53448C1.75494 1.53448 1.41821 1.88185 1.41821 2.31035C1.41821 2.73884 1.75494 3.08621 2.1703 3.08621Z" stroke="#EEEEEE" stroke-width="2"/>
<path d="M8.18715 3.08621C8.60252 3.08621 8.93924 2.73884 8.93924 2.31035C8.93924 1.88185 8.60252 1.53448 8.18715 1.53448C7.77178 1.53448 7.43506 1.88185 7.43506 2.31035C7.43506 2.73884 7.77178 3.08621 8.18715 3.08621Z" stroke="#EEEEEE" stroke-width="2"/>
<path d="M14.2038 3.08621C14.6191 3.08621 14.9558 2.73884 14.9558 2.31035C14.9558 1.88185 14.6191 1.53448 14.2038 1.53448C13.7884 1.53448 13.4517 1.88185 13.4517 2.31035C13.4517 2.73884 13.7884 3.08621 14.2038 3.08621Z" stroke="#EEEEEE" stroke-width="2"/>
</svg>
