<svg width="16" height="16" viewBox="0 0 16 16" fill="none" xmlns="http://www.w3.org/2000/svg">
<path d="M4.86511 7.5354H10.5058V8.4967H4.86511V7.5354Z" fill="#EEEEEE"/>
<path d="M4.25403 3.34646C4.34579 3.15402 4.39399 2.94292 4.39505 2.72882C4.39505 2.44363 4.31234 2.16484 4.15739 1.92771C4.00244 1.69059 3.7822 1.50577 3.52453 1.39663C3.26685 1.28749 2.98331 1.25893 2.70977 1.31457C2.43622 1.37021 2.18495 1.50754 1.98774 1.70921C1.79052 1.91087 1.65622 2.1678 1.6018 2.44751C1.54739 2.72722 1.57532 3.01715 1.68205 3.28063C1.78878 3.54412 1.96953 3.76932 2.20143 3.92776C2.43333 4.08621 2.70597 4.17078 2.98488 4.17078C3.19426 4.1698 3.40073 4.12051 3.5889 4.02658L4.8651 5.33059V6.57404H5.80522V4.93309L4.25403 3.34646ZM2.98488 3.20947C2.89191 3.20947 2.80103 3.18128 2.72373 3.12847C2.64643 3.07565 2.58618 3.00059 2.5506 2.91276C2.51502 2.82493 2.50572 2.72829 2.52385 2.63505C2.54199 2.54181 2.58676 2.45617 2.6525 2.38895C2.71824 2.32173 2.80199 2.27595 2.89317 2.25741C2.98436 2.23886 3.07887 2.24838 3.16476 2.28476C3.25065 2.32114 3.32406 2.38274 3.37572 2.46179C3.42737 2.54083 3.45493 2.63376 3.45493 2.72882C3.45493 2.8563 3.40541 2.97855 3.31726 3.06869C3.2291 3.15883 3.10954 3.20947 2.98488 3.20947Z" fill="#EEEEEE"/>
<path d="M9.09559 2.72892C9.09675 2.4643 9.02667 2.20445 8.89302 1.97783C8.75938 1.75122 8.56732 1.56658 8.33789 1.44414C8.10846 1.3217 7.85051 1.26619 7.59228 1.28367C7.33405 1.30115 7.0855 1.39096 6.87386 1.54326C6.66222 1.69556 6.49565 1.90447 6.39239 2.14713C6.28912 2.38978 6.25316 2.65681 6.28842 2.91897C6.32369 3.18113 6.42883 3.42831 6.59233 3.63344C6.75582 3.83858 6.97137 3.99374 7.21537 4.08196V6.57414H8.15548V4.08244C8.42963 3.98363 8.66716 3.80049 8.83548 3.55815C9.0038 3.31582 9.09466 3.02616 9.09559 2.72892ZM7.68542 3.20957C7.59246 3.20957 7.50158 3.18138 7.42428 3.12857C7.34697 3.07576 7.28673 3.00069 7.25115 2.91286C7.21557 2.82503 7.20626 2.72839 7.2244 2.63515C7.24254 2.54191 7.28731 2.45627 7.35304 2.38905C7.41878 2.32183 7.50254 2.27605 7.59372 2.25751C7.6849 2.23896 7.77942 2.24848 7.86531 2.28486C7.9512 2.32124 8.02461 2.38284 8.07626 2.46189C8.12791 2.54093 8.15548 2.63386 8.15548 2.72892C8.15548 2.8564 8.10596 2.97865 8.01781 3.06879C7.92965 3.15893 7.81009 3.20957 7.68542 3.20957Z" fill="#EEEEEE"/>
<path d="M12.386 1.28711C12.0121 1.28749 11.6537 1.43953 11.3893 1.70987C11.1249 1.98021 10.9762 2.34675 10.9758 2.72906C10.9769 2.94316 11.0251 3.15426 11.1169 3.3467L9.56567 4.93285V6.57428H10.5058V5.33131L11.782 4.02682C11.9702 4.12075 12.1766 4.17004 12.386 4.17102C12.76 4.17102 13.1187 4.0191 13.3832 3.74868C13.6476 3.47826 13.7962 3.1115 13.7962 2.72906C13.7962 2.34663 13.6476 1.97987 13.3832 1.70945C13.1187 1.43903 12.76 1.28711 12.386 1.28711ZM12.386 3.20972C12.293 3.20972 12.2022 3.18153 12.1249 3.12871C12.0476 3.0759 11.9873 3.00083 11.9517 2.913C11.9162 2.82517 11.9069 2.72853 11.925 2.63529C11.9431 2.54206 11.9879 2.45641 12.0536 2.38919C12.1194 2.32197 12.2031 2.27619 12.2943 2.25765C12.3855 2.2391 12.48 2.24862 12.5659 2.285C12.6518 2.32138 12.7252 2.38299 12.7769 2.46203C12.8285 2.54107 12.8561 2.634 12.8561 2.72906C12.8561 2.85654 12.8065 2.9788 12.7184 3.06894C12.6302 3.15908 12.5107 3.20972 12.386 3.20972Z" fill="#EEEEEE"/>
<path d="M5.80522 9.45801H4.8651V10.701L3.5889 12.0055C3.40073 11.9115 3.19426 11.8622 2.98488 11.8613C2.70597 11.8613 2.43333 11.9458 2.20143 12.1043C1.96953 12.2627 1.78878 12.4879 1.68205 12.7514C1.57532 13.0149 1.54739 13.3048 1.6018 13.5845C1.65622 13.8642 1.79052 14.1212 1.98774 14.3228C2.18495 14.5245 2.43622 14.6618 2.70977 14.7175C2.98331 14.7731 3.26685 14.7446 3.52453 14.6354C3.7822 14.5263 4.00244 14.3415 4.15739 14.1043C4.31234 13.8672 4.39505 13.5884 4.39505 13.3032C4.39399 13.0891 4.3458 12.878 4.25403 12.6856L5.80522 11.0994V9.45801ZM2.98488 13.7839C2.89191 13.7839 2.80103 13.7557 2.72373 13.7029C2.64643 13.6501 2.58618 13.575 2.5506 13.4872C2.51502 13.3993 2.50572 13.3027 2.52385 13.2095C2.54199 13.1162 2.58676 13.0306 2.6525 12.9634C2.71824 12.8961 2.80199 12.8504 2.89317 12.8318C2.98436 12.8133 3.07887 12.8228 3.16476 12.8592C3.25065 12.8955 3.32406 12.9571 3.37571 13.0362C3.42737 13.1152 3.45493 13.2082 3.45493 13.3032C3.45493 13.4307 3.40541 13.553 3.31726 13.6431C3.2291 13.7332 3.10954 13.7839 2.98488 13.7839Z" fill="#EEEEEE"/>
<path d="M8.1555 11.9497V9.45801H7.21538V11.9497C6.90176 12.0631 6.63742 12.2862 6.46911 12.5796C6.30079 12.873 6.23933 13.2178 6.29558 13.553C6.35183 13.8883 6.52218 14.1924 6.77651 14.4117C7.03084 14.6309 7.35279 14.7512 7.68544 14.7512C8.01809 14.7512 8.34004 14.6309 8.59437 14.4117C8.8487 14.1924 9.01905 13.8883 9.0753 13.553C9.13155 13.2178 9.07009 12.873 8.90177 12.5796C8.73346 12.2862 8.46913 12.0631 8.1555 11.9497ZM7.68544 13.7839C7.59247 13.7839 7.50159 13.7557 7.42429 13.7029C7.34699 13.6501 7.28674 13.575 7.25117 13.4872C7.21559 13.3993 7.20628 13.3027 7.22442 13.2095C7.24255 13.1162 7.28732 13.0306 7.35306 12.9634C7.4188 12.8961 7.50256 12.8504 7.59374 12.8318C7.68492 12.8133 7.77943 12.8228 7.86532 12.8592C7.95122 12.8955 8.02463 12.9571 8.07628 13.0362C8.12793 13.1152 8.1555 13.2082 8.1555 13.3032C8.1555 13.4307 8.10597 13.553 8.01782 13.6431C7.92967 13.7332 7.81011 13.7839 7.68544 13.7839Z" fill="#EEEEEE"/>
<path d="M12.386 11.8613C12.1766 11.8622 11.9702 11.9115 11.782 12.0055L10.5058 10.7015V9.45801H9.56567V11.099L11.1169 12.6851C11.025 12.8777 10.9768 13.089 10.9758 13.3032C10.9758 13.5884 11.0585 13.8672 11.2135 14.1043C11.3685 14.3415 11.5887 14.5263 11.8464 14.6354C12.104 14.7446 12.3876 14.7731 12.6611 14.7175C12.9347 14.6618 13.1859 14.5245 13.3832 14.3228C13.5804 14.1212 13.7147 13.8642 13.7691 13.5845C13.8235 13.3048 13.7956 13.0149 13.6888 12.7514C13.5821 12.4879 13.4014 12.2627 13.1695 12.1043C12.9376 11.9458 12.6649 11.8613 12.386 11.8613ZM12.386 13.7839C12.293 13.7839 12.2022 13.7557 12.1249 13.7029C12.0476 13.6501 11.9873 13.575 11.9517 13.4872C11.9162 13.3993 11.9069 13.3027 11.925 13.2095C11.9431 13.1162 11.9879 13.0306 12.0536 12.9634C12.1194 12.8961 12.2031 12.8504 12.2943 12.8318C12.3855 12.8133 12.48 12.8228 12.5659 12.8592C12.6518 12.8955 12.7252 12.9571 12.7769 13.0362C12.8285 13.1152 12.8561 13.2082 12.8561 13.3032C12.8561 13.4307 12.8065 13.553 12.7184 13.6431C12.6302 13.7332 12.5107 13.7839 12.386 13.7839Z" fill="#EEEEEE"/>
</svg>
