<svg width="12" height="14" viewBox="0 0 12 14" fill="none" xmlns="http://www.w3.org/2000/svg">
<path d="M0.796875 0.724121V13.1379H11.3261V0.724121H0.796875ZM6.06151 3.83145C6.52577 3.83145 6.97101 3.99452 7.29929 4.2848C7.62757 4.57508 7.812 4.96878 7.812 5.37929C7.812 5.78981 7.62757 6.18351 7.29929 6.47379C6.97101 6.76406 6.52577 6.92714 6.06151 6.92714C5.59725 6.92714 5.15201 6.76406 4.82373 6.47379C4.49544 6.18351 4.31102 5.78981 4.31102 5.37929C4.31102 4.96878 4.49544 4.57508 4.82373 4.2848C5.15201 3.99452 5.59725 3.83145 6.06151 3.83145ZM8.69383 10.0345H3.42919V9.2586C3.42919 8.84706 3.61408 8.45237 3.94318 8.16137C4.27229 7.87037 4.71865 7.70688 5.18407 7.70688H6.93895C7.40437 7.70688 7.85073 7.87037 8.17983 8.16137C8.50894 8.45237 8.69383 8.84706 8.69383 9.2586V10.0345Z" fill="#EEEEEE"/>
</svg>
