<svg width="21" height="18" viewBox="0 0 21 18" fill="none" xmlns="http://www.w3.org/2000/svg">
<path d="M0.691234 9.93133L2.05423 10.2693L3.08023 8.65833L1.13023 8.17633C0.897507 8.11811 0.651186 8.15473 0.445458 8.27813C0.239731 8.40153 0.0914494 8.6016 0.0332344 8.83433C-0.0249807 9.06706 0.0116393 9.31338 0.135038 9.5191C0.258437 9.72483 0.458507 9.87311 0.691234 9.93133ZM18.4822 10.1923L14.0192 14.2083L8.77223 10.1473C8.67211 10.0703 8.55697 10.0152 8.43423 9.98533L7.73623 9.81133L6.70923 11.4223L7.80923 11.6953L13.5062 16.1033C13.6754 16.2335 13.8847 16.3005 14.098 16.2926C14.3113 16.2848 14.5151 16.2026 14.6742 16.0603L19.7022 11.5333C19.7908 11.454 19.8627 11.3579 19.9139 11.2506C19.9651 11.1433 19.9945 11.0269 20.0004 10.9082C20.0064 10.7894 19.9887 10.6707 19.9485 10.5588C19.9083 10.4469 19.8464 10.3441 19.7662 10.2563C19.604 10.0783 19.378 9.97161 19.1374 9.95962C18.8969 9.94763 18.6613 10.0313 18.4822 10.1923ZM8.68523 5.78033L13.5722 8.90933C13.7707 9.03624 14.0106 9.0815 14.2417 9.03565C14.4728 8.98981 14.6772 8.8564 14.8122 8.66333L19.8392 1.42133C19.9073 1.3236 19.9553 1.21336 19.9806 1.09697C20.0058 0.980577 20.0077 0.860342 19.9862 0.7432C19.9648 0.626059 19.9203 0.51433 19.8554 0.414461C19.7906 0.314592 19.7065 0.228559 19.6082 0.161328C19.4099 0.0243019 19.1653 -0.0284389 18.9282 0.0146822C18.691 0.0578033 18.4806 0.193263 18.3432 0.391328L13.8152 6.91233L8.89923 3.76533C8.69521 3.63491 8.44781 3.59068 8.21123 3.64233C7.97553 3.69498 7.77024 3.83879 7.64023 4.04233L0.143234 15.8093C0.0553223 15.9462 0.00601276 16.1043 0.000515845 16.2668C-0.00498107 16.4294 0.0335388 16.5904 0.112005 16.7329C0.190472 16.8754 0.305971 16.9941 0.446299 17.0763C0.586627 17.1586 0.746572 17.2015 0.909234 17.2003C1.06227 17.2007 1.21292 17.1624 1.34719 17.089C1.48146 17.0156 1.59499 16.9094 1.67723 16.7803L8.68523 5.78033Z" fill="#EEEEEE"/>
</svg>
