<svg width="16" height="18" viewBox="0 0 16 18" fill="none" xmlns="http://www.w3.org/2000/svg">
<path d="M16 16.8234C16 16.9639 15.9297 17.0927 15.7891 17.2098C15.6484 17.3268 15.4323 17.4234 15.1406 17.4995C14.849 17.5756 14.5495 17.6459 14.2422 17.7102C13.9349 17.7746 13.5417 17.8244 13.0625 17.8595C12.5833 17.8946 12.1667 17.921 11.8125 17.9385C11.4583 17.9561 11.0026 17.9707 10.4453 17.9824C9.88802 17.9941 9.46615 18 9.17969 18H6.82031L5.55469 17.9824L4.1875 17.9385L2.9375 17.8595L1.75781 17.7102L0.859375 17.4995L0.210938 17.2098L0 16.8234C0.0208333 15.7932 0.59375 14.8829 1.71875 14.0927C2.84375 13.3024 4.27083 12.7785 6 12.521V11.9415C5.45833 11.6722 4.98958 11.2917 4.59375 10.8C4.19792 10.3083 3.88542 9.73171 3.65625 9.07024C3.42708 8.40878 3.26042 7.70049 3.15625 6.94537C3.05208 6.19024 3 5.37366 3 4.49561C3 3.74634 3.13021 3.07902 3.39062 2.49366C3.65104 1.90829 4.01042 1.43707 4.46875 1.08C4.92708 0.722927 5.45312 0.453659 6.04688 0.272195C6.64062 0.0907317 7.29167 0 8 0C8.70833 0 9.35938 0.0907317 9.95312 0.272195C10.5469 0.453659 11.0729 0.722927 11.5312 1.08C11.9896 1.43707 12.349 1.90829 12.6094 2.49366C12.8698 3.07902 13 3.74634 13 4.49561C13 8.59317 12 11.0868 10 11.9766V12.521C11.7292 12.7785 13.1562 13.3024 14.2812 14.0927C15.4062 14.8829 15.9792 15.7932 16 16.8234Z" fill="#EEEEEE"/>
</svg>
